HIERARCHY
ROOT Hips
{
	OFFSET -0.001795 -0.223333 0.028219
	CHANNELS 6 Xposition Yposition Zposition Zrotation Yrotation Xrotation 
	JOINT LeftUpLeg
	{
		OFFSET 0.069520 -0.091406 -0.006815
		CHANNELS 3 Zrotation Yrotation Xrotation
		JOINT LeftLeg
		{
			OFFSET 0.034277 -0.375199 -0.004496
			CHANNELS 3 Zrotation Yrotation Xrotation
			JOINT LeftFoot
			{
				OFFSET -0.013596 -0.397961 -0.043693
				CHANNELS 3 Zrotation Yrotation Xrotation
				JOINT LeftToe
				{
					OFFSET 0.026358 -0.055791 0.119288
					CHANNELS 3 Zrotation Yrotation Xrotation
					End Site
					{
						OFFSET 0.000000 0.000000 0.000000
					}
				}
			}
		}
	}
	JOINT RightUpLeg
	{
		OFFSET -0.067670 -0.090522 -0.004320
		CHANNELS 3 Zrotation Yrotation Xrotation
		JOINT RightLeg
		{
			OFFSET -0.038290 -0.382569 -0.008850
			CHANNELS 3 Zrotation Yrotation Xrotation
			JOINT RightFoot
			{
				OFFSET 0.015774 -0.398415 -0.042312
				CHANNELS 3 Zrotation Yrotation Xrotation
				JOINT RightToe
				{
					OFFSET -0.025372 -0.048144 0.123348
					CHANNELS 3 Zrotation Yrotation Xrotation
					End Site
					{
						OFFSET 0.000000 0.000000 0.000000
					}
				}
			}
		}
	}
	JOINT Spine
	{
		OFFSET -0.002533 0.108963 -0.026696
		CHANNELS 3 Zrotation Yrotation Xrotation
		JOINT Spine1
		{
			OFFSET 0.005487 0.135180 0.001092
			CHANNELS 3 Zrotation Yrotation Xrotation
			JOINT Spine2
			{
				OFFSET 0.001457 0.052922 0.025425
				CHANNELS 3 Zrotation Yrotation Xrotation
				JOINT Neck
				{
					OFFSET -0.002778 0.213870 -0.042857
					CHANNELS 3 Zrotation Yrotation Xrotation
					JOINT Head
					{
						OFFSET 0.005152 0.064970 0.051349
						CHANNELS 3 Zrotation Yrotation Xrotation
						End Site
						{
							OFFSET 0.000000 0.000000 0.000000
						}
					}
				}
				JOINT LeftShoulder
				{
					OFFSET 0.078845 0.121749 -0.034090
					CHANNELS 3 Zrotation Yrotation Xrotation
					JOINT LeftArm
					{
						OFFSET 0.090977 0.030469 -0.008868
						CHANNELS 3 Zrotation Yrotation Xrotation
						JOINT LeftForeArm
						{
							OFFSET 0.259612 -0.012772 -0.027456
							CHANNELS 3 Zrotation Yrotation Xrotation
							JOINT LeftHand
							{
								OFFSET 0.249234 0.008986 -0.001171
								CHANNELS 3 Zrotation Yrotation Xrotation
								End Site
								{
									OFFSET 0.000000 0.000000 0.000000
								}
							}
						}
					}
				}
				JOINT RightShoulder
				{
					OFFSET -0.081759 0.118833 -0.038615
					CHANNELS 3 Zrotation Yrotation Xrotation
					JOINT RightArm
					{
						OFFSET -0.096012 0.032551 -0.009143
						CHANNELS 3 Zrotation Yrotation Xrotation
						JOINT RightForeArm
						{
							OFFSET -0.253742 -0.013329 -0.021401
							CHANNELS 3 Zrotation Yrotation Xrotation
							JOINT RightHand
							{
								OFFSET -0.255298 0.007772 -0.005559
								CHANNELS 3 Zrotation Yrotation Xrotation
								End Site
								{
									OFFSET 0.000000 0.000000 0.000000
								}
							}
						}
					}
				}
			}
		}
	}
}
MOTION
Frames: 16
Frame Time: 0.050000
0.000000 0.957370 0.000000 -1.176713 -3.042050 1.043299 3.444142 0.089268 1.859522 -2.557859 0.314929 -1.712088 0.574866 4.387869 9.089660 0.000000 0.000000 0.000000 -4.215013 0.226073 -1.455087 2.517951 -0.178299 3.615056 -0.657583 -4.634600 6.445741 0.000000 0.000000 0.000000 6.827105 -0.256876 1.854143 -5.362775 1.961294 -19.137685 -1.210322 6.244056 27.203633 9.622000 -2.859561 -28.392193 0.000000 0.000000 0.000000 -21.105593 -13.444127 5.114127 -46.296007 -4.480321 -5.549400 -82.120905 -66.659239 63.794740 0.000000 0.000000 0.000000 27.480814 0.642327 0.316806 51.702442 8.963727 -4.029657 75.602411 66.594719 61.310383 0.000000 0.000000 0.000000 
-0.000298 0.956730 0.000960 -1.476011 -2.656991 1.779776 4.144021 0.060144 1.837333 -3.106911 0.372907 -2.539619 0.165085 3.610802 8.806808 0.000000 0.000000 0.000000 -4.107965 0.240897 -1.666515 2.885264 -0.239232 2.998237 -1.171018 -5.264175 5.289316 0.000000 0.000000 0.000000 7.008089 -0.190549 0.986072 -6.134523 2.181478 -19.293311 -0.594670 5.998620 27.796790 9.683199 -2.743078 -29.399522 0.000000 0.000000 0.000000 -20.953372 -13.474586 5.154629 -45.654404 -4.801760 -5.396257 -85.919578 -65.948714 66.537165 0.000000 0.000000 0.000000 26.982963 -0.715675 -0.533693 52.606157 7.883033 -4.546687 82.734563 65.223670 66.578976 0.000000 0.000000 0.000000 
-0.000520 0.956771 0.001493 -1.040941 -2.504348 1.863215 3.781440 0.020500 1.057363 -2.880518 0.339976 -1.250213 -0.353981 2.354977 7.800726 0.000000 0.000000 0.000000 -4.308335 0.260601 -1.927136 2.497266 -0.185522 3.300572 -1.460426 -6.032838 5.674558 0.000000 0.000000 0.000000 7.196868 -0.142556 0.470750 -5.957393 2.138005 -19.148133 -1.310273 6.375630 28.098123 9.800390 -2.781531 -29.196893 0.000000 0.000000 0.000000 -20.335010 -12.982756 4.751611 -45.286827 -5.411862 -5.166400 -86.017296 -65.723384 66.204904 0.000000 0.000000 0.000000 28.238561 0.095369 0.148799 51.071850 8.174690 -4.480177 80.871922 65.535948 65.210325 0.000000 0.000000 0.000000 
-0.000880 0.957460 0.001880 -1.042720 -1.881891 1.971725 4.009592 0.003931 0.963541 -2.947184 0.342370 -1.167483 -1.041419 1.335118 8.249001 0.000000 0.000000 0.000000 -4.448619 0.241175 -1.638284 2.845053 -0.244048 2.768349 -1.822588 -6.698833 5.448074 0.000000 0.000000 0.000000 7.292941 -0.094065 -0.051241 -5.991269 2.167889 -18.937022 -1.466500 6.478865 28.555682 10.286289 -2.924936 -29.547713 0.000000 0.000000 0.000000 -20.838373 -14.217923 5.295199 -45.070787 -5.066073 -5.224692 -87.117247 -66.019979 67.321603 0.000000 0.000000 0.000000 28.766205 -0.220717 0.166827 51.131374 7.997395 -4.678277 83.904155 65.934013 68.772108 0.000000 0.000000 0.000000 
-0.001317 0.957779 0.002207 -0.958383 -1.908038 1.709935 3.758601 0.009371 0.924530 -2.556968 0.297470 -0.717770 -0.899221 1.356691 7.629985 0.000000 0.000000 0.000000 -4.468992 0.210786 -1.168961 2.743714 -0.236631 2.463930 -1.691819 -6.515846 5.738570 0.000000 0.000000 0.000000 7.009241 -0.095236 0.052346 -5.554432 2.061795 -18.227743 -1.659085 6.443582 27.866934 10.100982 -2.974072 -28.527684 0.000000 0.000000 0.000000 -20.471279 -14.150448 5.230866 -45.487191 -5.189169 -5.173135 -87.332365 -66.189336 67.660217 0.000000 0.000000 0.000000 28.579834 -0.008469 0.259959 50.732288 7.929787 -4.597485 82.790550 66.108046 67.727296 0.000000 0.000000 0.000000 
-0.001712 0.958223 0.002546 -1.028940 -2.013056 1.693218 3.874697 0.013774 1.021044 -2.715665 0.317149 -0.930694 -0.918299 1.293957 7.579086 0.000000 0.000000 0.000000 -4.445329 0.198040 -0.952599 2.855330 -0.250856 2.379717 -1.863906 -6.903401 5.766840 0.000000 0.000000 0.000000 7.121120 -0.083447 -0.067296 -5.711064 2.097878 -18.523385 -1.496192 6.478101 28.395961 9.854472 -2.848316 -28.576528 0.000000 0.000000 0.000000 -20.239218 -14.575199 5.496080 -45.860309 -5.382710 -5.202624 -86.820885 -66.651182 67.758573 0.000000 0.000000 0.000000 28.677396 0.488269 0.606913 50.438524 7.774417 -4.705602 83.829780 66.952129 69.566931 0.000000 0.000000 0.000000 
-0.002027 0.958089 0.002817 -0.963962 -2.278918 1.531590 3.781060 0.030167 1.199989 -2.610836 0.309695 -1.121795 -0.769342 1.649886 7.867267 0.000000 0.000000 0.000000 -4.498362 0.195178 -0.868978 2.932509 -0.255805 2.539006 -1.781541 -6.722580 5.707204 0.000000 0.000000 0.000000 7.086946 -0.085950 0.007224 -5.586989 2.064431 -18.220426 -1.614694 6.459466 28.086279 9.890445 -2.927972 -28.318828 0.000000 0.000000 0.000000 -20.361243 -14.499096 5.497196 -45.900931 -5.149571 -5.269723 -86.384737 -67.185025 67.939825 0.000000 0.000000 0.000000 28.728411 0.779399 0.713412 50.318310 7.795830 -4.639601 82.755554 67.188328 68.653741 0.000000 0.000000 0.000000 
-0.002373 0.958056 0.003153 -0.951758 -2.589862 1.432707 3.780992 0.032308 1.175942 -2.632627 0.311017 -0.863187 -0.738882 1.550374 7.521799 0.000000 0.000000 0.000000 -4.479884 0.200550 -0.933813 3.011805 -0.257511 2.893680 -1.767314 -6.589756 5.360501 0.000000 0.000000 0.000000 7.199928 -0.092815 0.094544 -5.744645 2.104955 -18.223664 -1.487801 6.564678 28.244499 9.939650 -2.971828 -28.350800 0.000000 0.000000 0.000000 -20.450987 -14.553335 5.568885 -45.818606 -5.385470 -5.202505 -86.304795 -67.868659 68.626215 0.000000 0.000000 0.000000 28.946798 0.845005 0.725843 50.178457 8.037129 -4.555191 82.396598 67.341964 68.445056 0.000000 0.000000 0.000000 
-0.002779 0.957859 0.003474 -0.918934 -2.713576 1.299967 3.809033 0.043325 1.328454 -2.642896 0.312513 -0.819053 -0.681075 1.671311 7.590765 0.000000 0.000000 0.000000 -4.529333 0.205255 -0.995589 3.159837 -0.270003 3.238794 -1.862141 -6.807559 5.372033 0.000000 0.000000 0.000000 7.225474 -0.084595 0.048340 -5.620674 2.075118 -17.902198 -1.582769 6.710611 28.155127 9.863728 -2.935441 -28.213585 0.000000 0.000000 0.000000 -20.604458 -14.535391 5.533777 -45.702085 -5.791594 -5.026798 -84.363722 -68.581094 67.496604 0.000000 0.000000 0.000000 29.125762 0.912682 0.793335 50.128805 8.110568 -4.527096 81.414830 67.780008 67.986453 0.000000 0.000000 0.000000 
-0.003276 0.957778 0.003787 -0.909250 -2.805257 1.178521 3.771173 0.059258 1.546078 -2.638856 0.312957 -0.844257 -0.648652 1.647172 7.381358 0.000000 0.000000 0.000000 -4.440069 0.206726 -1.064136 3.125875 -0.260391 3.546506 -1.932586 -6.872209 5.102511 0.000000 0.000000 0.000000 7.244958 -0.074368 -0.019872 -5.565384 2.062544 -17.707544 -1.598391 6.902111 28.198494 10.035651 -3.004028 -28.251527 0.000000 0.000000 0.000000 -20.534293 -14.682404 5.571575 -45.681924 -6.179133 -4.879717 -82.738297 -68.764686 66.131221 0.000000 0.000000 0.000000 29.364704 0.853563 0.809024 50.218168 8.264835 -4.494081 80.267835 68.132547 67.360651 0.000000 0.000000 0.000000 
-0.003768 0.957486 0.003992 -0.946718 -2.687861 1.220891 3.850302 0.046510 1.386999 -2.598088 0.305053 -0.576508 -0.591929 1.693073 7.196149 0.000000 0.000000 0.000000 -4.354155 0.217788 -1.291866 3.177080 -0.262981 3.900067 -1.982970 -6.935945 4.986032 0.000000 0.000000 0.000000 7.311254 -0.066612 -0.111681 -5.476943 2.038884 -17.677969 -1.670606 6.877036 28.270680 10.036445 -2.974676 -28.399319 0.000000 0.000000 0.000000 -20.553435 -14.854611 5.654605 -45.501818 -6.716868 -4.672044 -80.515059 -68.668347 63.997111 0.000000 0.000000 0.000000 29.619253 0.691317 0.720950 50.365926 8.301256 -4.505494 79.226064 68.051344 66.373070 0.000000 0.000000 0.000000 
-0.004183 0.957387 0.004122 -0.991761 -2.599861 1.242319 3.979801 0.035965 1.269633 -2.557995 0.298477 -0.422897 -0.528129 1.737094 6.976634 0.000000 0.000000 0.000000 -4.189788 0.232298 -1.591919 3.153102 -0.253931 4.350232 -1.989551 -6.862713 4.745631 0.000000 0.000000 0.000000 7.312023 -0.057767 -0.202326 -5.423252 2.026449 -17.600395 -1.745842 6.791273 28.424860 10.217768 -3.027212 -28.763773 0.000000 0.000000 0.000000 -20.570004 -15.035536 5.770247 -45.283519 -7.270341 -4.470040 -78.617916 -68.474519 62.127096 0.000000 0.000000 0.000000 29.927289 0.708516 0.724010 50.575133 8.389549 -4.497287 77.948436 68.277916 65.457718 0.000000 0.000000 0.000000 
-0.004468 0.957356 0.004234 -1.071250 -2.593094 1.291144 4.075339 0.021718 1.064956 -2.514600 0.289575 -0.059389 -0.462659 1.742447 6.660594 0.000000 0.000000 0.000000 -4.106935 0.248621 -1.868815 3.190359 -0.251005 4.893026 -1.941559 -6.620651 4.362771 0.000000 0.000000 0.000000 7.275532 -0.066135 -0.131611 -5.354770 2.002074 -17.730507 -1.764547 6.785031 28.584877 10.447584 -3.117870 -29.026901 0.000000 0.000000 0.000000 -20.467982 -15.214890 5.875954 -45.153682 -7.846986 -4.273278 -77.215298 -68.125208 60.568714 0.000000 0.000000 0.000000 30.175206 0.452663 0.549580 50.824318 8.537621 -4.468579 77.239841 68.143894 64.736549 0.000000 0.000000 0.000000 
-0.004683 0.957295 0.004422 -1.121739 -2.658933 1.411833 4.081606 0.006692 0.816142 -2.575506 0.294419 0.180182 -0.316874 1.919787 6.420002 0.000000 0.000000 0.000000 -4.193652 0.268387 -2.133369 3.194017 -0.245043 5.261545 -1.745978 -6.109005 4.150976 0.000000 0.000000 0.000000 7.199515 -0.057131 -0.235905 -5.306567 1.985544 -17.709275 -1.727200 6.697873 28.631687 10.450166 -3.069984 -29.455504 0.000000 0.000000 0.000000 -20.486533 -15.211747 5.918149 -44.930677 -8.158878 -4.158526 -77.628570 -67.859325 60.725510 0.000000 0.000000 0.000000 30.351672 0.386669 0.441741 51.126889 8.570828 -4.453292 76.471811 68.306471 64.172069 0.000000 0.000000 0.000000 
-0.004833 0.957367 0.004673 -1.113446 -2.531402 1.485202 4.095493 0.000228 0.740363 -2.706565 0.309268 0.144650 -0.254783 2.062658 6.469687 0.000000 0.000000 0.000000 -4.217013 0.272922 -2.205539 3.052628 -0.223617 5.401921 -1.665384 -5.872128 4.018262 0.000000 0.000000 0.000000 7.042380 -0.057051 -0.246432 -5.297305 1.983492 -17.771216 -1.736161 6.592680 28.639273 10.512039 -3.118609 -29.401268 0.000000 0.000000 0.000000 -20.597095 -15.260297 5.956587 -44.789509 -8.292190 -4.099560 -78.411845 -67.620904 61.195270 0.000000 0.000000 0.000000 30.568637 0.341654 0.396820 51.359205 8.588762 -4.457200 76.060326 68.525721 64.035915 0.000000 0.000000 0.000000 
-0.005023 0.957566 0.004849 -1.102078 -2.594160 1.586738 4.097052 -0.008995 0.587565 -2.760166 0.316446 0.071506 -0.199539 2.232194 6.671343 0.000000 0.000000 0.000000 -4.202432 0.279642 -2.291475 2.833906 -0.191997 5.331308 -1.511298 -5.556056 4.092186 0.000000 0.000000 0.000000 6.859916 -0.055795 -0.265781 -5.243751 1.962488 -17.883765 -1.764384 6.596099 28.764023 10.475005 -3.055751 -29.712636 0.000000 0.000000 0.000000 -20.718084 -15.088014 5.884808 -44.571911 -8.265321 -4.105323 -80.590869 -67.440177 62.976006 0.000000 0.000000 0.000000 30.618910 0.176125 0.263192 51.680921 8.561701 -4.482931 76.902935 68.726837 65.025603 0.000000 0.000000 0.000000 
